<svg width="285" height="76" viewBox="0 0 285 76" fill="none" xmlns="http://www.w3.org/2000/svg">
<g clip-path="url(#clip0_12_3)">
<path d="M30 11C29.3391 11 28.8 11.5391 28.8 12.2V15.875C24.6422 16.3391 21.1969 19.175 19.8375 23H40.1625C38.8031 19.175 35.3578 16.3391 31.2 15.875V12.2C31.2 11.5391 30.6609 11 30 11ZM19.2 25.3625C18.5109 25.3625 17.9625 25.9109 17.9625 26.6C17.9625 27.2891 18.5109 27.8375 19.2 27.8375V38L21.6 37.025V27.8375H24V36.0875L26.4 35.225V27.8375H28.8V34.2875L30 33.8L31.2 34.2875V27.8375H33.6V35.225L36 36.0875V27.8375H38.4V37.025L40.8 38V27.8375C41.4891 27.8375 42.0375 27.2891 42.0375 26.6C42.0375 25.9109 41.4891 25.3625 40.8 25.3625H19.2ZM30 36.2C29.8547 36.2 29.7234 36.2234 29.5875 36.275L6.7875 45.05C6.32344 45.2281 6 45.6781 6 46.175V50.6C6 51.2656 6.53906 51.8 7.2 51.8H52.8C53.4656 51.8 54 51.2656 54 50.6V46.175C54 45.6781 53.6766 45.2281 53.2125 45.05L30.4125 36.275C30.2719 36.2234 30.1453 36.2 30 36.2ZM8.4 54.2V69.8C8.4 70.4656 8.93906 71 9.6 71H23.175C23.8359 71 24.375 70.4656 24.375 69.8V63.3125C24.375 60.5047 26.2266 58.1281 28.8 57.65C30.4969 57.3266 32.2219 57.7391 33.525 58.8125C34.8 59.8672 35.5125 61.4375 35.5125 63.0875V69.8C35.5125 70.4656 36.0469 71 36.7125 71H50.4C51.0656 71 51.6 70.4656 51.6 69.8V54.2H8.4Z" fill="white"/>
</g>
<rect x="0.5" y="11.5" width="59" height="59" rx="29.5" stroke="white"/>
<path d="M72.0056 61.9104C71.6989 61.9104 71.4536 61.8246 71.2696 61.6528C71.0856 61.4688 70.9936 61.2358 70.9936 60.9536C70.9936 60.7696 71.0304 60.555 71.104 60.3096C71.1776 60.0643 71.3125 59.7147 71.5088 59.2608L72.2264 57.6232C72.2632 57.5374 72.3307 57.4944 72.4288 57.4944H72.9808C73.1157 57.4944 73.1648 57.5619 73.128 57.6968L72.3552 60.0336C72.7968 60.1686 73.0176 60.4691 73.0176 60.9352C73.0176 61.2174 72.9195 61.4504 72.7232 61.6344C72.5392 61.8184 72.3 61.9104 72.0056 61.9104ZM74.8944 61.9104C74.5877 61.9104 74.3424 61.8246 74.1584 61.6528C73.9744 61.4688 73.8824 61.2358 73.8824 60.9536C73.8824 60.7696 73.9192 60.555 73.9928 60.3096C74.0664 60.0643 74.2013 59.7147 74.3976 59.2608L75.1152 57.6232C75.152 57.5374 75.2195 57.4944 75.3176 57.4944H75.8696C76.0045 57.4944 76.0536 57.5619 76.0168 57.6968L75.244 60.0336C75.6856 60.1686 75.9064 60.4691 75.9064 60.9352C75.9064 61.2174 75.8083 61.4504 75.612 61.6344C75.428 61.8184 75.1888 61.9104 74.8944 61.9104ZM81.8067 71.184C80.9726 71.184 80.3163 70.9141 79.8379 70.3744C79.3595 69.8224 79.1203 68.9576 79.1203 67.78V63.0328H77.4827C77.3601 63.0328 77.2987 62.9715 77.2987 62.8488V61.892C77.2987 61.7694 77.3601 61.708 77.4827 61.708H79.1203V58.856C79.1203 58.7334 79.1817 58.672 79.3043 58.672H80.3899C80.5249 58.672 80.5923 58.7334 80.5923 58.856V61.708H83.1683C83.291 61.708 83.3523 61.7694 83.3523 61.892V62.8488C83.3523 62.9715 83.291 63.0328 83.1683 63.0328H80.5923V67.8168C80.5923 68.516 80.7027 69.0251 80.9235 69.344C81.1443 69.6629 81.4817 69.8224 81.9355 69.8224C82.463 69.8224 82.8617 69.5403 83.1315 68.976C83.1929 68.8533 83.2787 68.8227 83.3891 68.884L84.2171 69.2336C84.3398 69.2949 84.3643 69.3992 84.2907 69.5464C83.9963 70.1352 83.6345 70.5584 83.2051 70.816C82.7758 71.0613 82.3097 71.184 81.8067 71.184ZM86.1024 71C85.9675 71 85.9 70.9325 85.9 70.7976V57.384C85.9 57.2614 85.9675 57.2 86.1024 57.2H87.188C87.3107 57.2 87.372 57.2614 87.372 57.384V63.272C87.7277 62.6955 88.2061 62.26 88.8072 61.9656C89.4205 61.6712 90.0339 61.524 90.6472 61.524C91.7021 61.524 92.5179 61.8307 93.0944 62.444C93.6832 63.0451 93.9776 63.8853 93.9776 64.9648V70.7976C93.9776 70.9325 93.9163 71 93.7936 71H92.708C92.5731 71 92.5056 70.9325 92.5056 70.7976V65.572C92.5056 64.6765 92.3216 64.008 91.9536 63.5664C91.5979 63.1126 91.0336 62.8856 90.2608 62.8856C89.8192 62.8856 89.3776 63.0022 88.936 63.2352C88.4944 63.456 88.1203 63.8056 87.8136 64.284C87.5192 64.7501 87.372 65.3512 87.372 66.0872V70.7976C87.372 70.9325 87.3107 71 87.188 71H86.1024ZM100.671 71.184C99.7392 71.184 98.9296 70.9755 98.2426 70.5584C97.568 70.1413 97.0466 69.5709 96.6786 68.8472C96.3106 68.1112 96.1266 67.2771 96.1266 66.3448C96.1266 65.4125 96.3106 64.5845 96.6786 63.8608C97.0589 63.1371 97.5864 62.5667 98.261 62.1496C98.948 61.7326 99.7514 61.524 100.671 61.524C101.591 61.524 102.364 61.7387 102.99 62.168C103.615 62.5974 104.088 63.1984 104.407 63.9712C104.738 64.7317 104.897 65.6149 104.885 66.6208C104.885 66.7557 104.818 66.8232 104.683 66.8232H97.6538C97.7397 67.7432 98.0464 68.4792 98.5738 69.0312C99.1136 69.5709 99.8128 69.8408 100.671 69.8408C101.346 69.8408 101.898 69.7059 102.327 69.436C102.769 69.1661 103.119 68.7797 103.376 68.2768C103.425 68.1787 103.511 68.148 103.634 68.1848L104.554 68.516C104.689 68.5651 104.726 68.6448 104.664 68.7552C104.272 69.5771 103.732 70.1904 103.045 70.5952C102.358 70.9877 101.567 71.184 100.671 71.184ZM100.671 62.8488C99.8618 62.8488 99.1872 63.1003 98.6474 63.6032C98.12 64.1061 97.7949 64.7931 97.6722 65.664H103.321C103.26 64.8176 102.996 64.1368 102.53 63.6216C102.064 63.1064 101.444 62.8488 100.671 62.8488ZM111.241 71C111.106 71 111.038 70.9325 111.038 70.7976V57.384C111.038 57.2614 111.106 57.2 111.241 57.2H112.326C112.449 57.2 112.51 57.2614 112.51 57.384V63.272C112.866 62.6955 113.344 62.26 113.945 61.9656C114.559 61.6712 115.172 61.524 115.785 61.524C116.84 61.524 117.656 61.8307 118.233 62.444C118.821 63.0451 119.116 63.8853 119.116 64.9648V70.7976C119.116 70.9325 119.054 71 118.932 71H117.846C117.711 71 117.644 70.9325 117.644 70.7976V65.572C117.644 64.6765 117.46 64.008 117.092 63.5664C116.736 63.1126 116.172 62.8856 115.399 62.8856C114.957 62.8856 114.516 63.0022 114.074 63.2352C113.633 63.456 113.258 63.8056 112.952 64.284C112.657 64.7501 112.51 65.3512 112.51 66.0872V70.7976C112.51 70.9325 112.449 71 112.326 71H111.241ZM125.975 71.184C125.031 71.184 124.203 70.9755 123.491 70.5584C122.78 70.1413 122.228 69.5709 121.835 68.8472C121.455 68.1112 121.265 67.2771 121.265 66.3448C121.265 65.4125 121.455 64.5845 121.835 63.8608C122.228 63.1371 122.78 62.5667 123.491 62.1496C124.203 61.7326 125.031 61.524 125.975 61.524C126.932 61.524 127.76 61.7326 128.459 62.1496C129.171 62.5667 129.723 63.1371 130.115 63.8608C130.508 64.5845 130.704 65.4125 130.704 66.3448C130.704 67.2771 130.508 68.1112 130.115 68.8472C129.723 69.5709 129.171 70.1413 128.459 70.5584C127.76 70.9755 126.932 71.184 125.975 71.184ZM125.975 69.8224C126.613 69.8224 127.171 69.6813 127.65 69.3992C128.128 69.1048 128.502 68.6939 128.772 68.1664C129.042 67.6389 129.177 67.0317 129.177 66.3448C129.177 65.6579 129.042 65.0568 128.772 64.5416C128.502 64.0141 128.128 63.6093 127.65 63.3272C127.171 63.0328 126.613 62.8856 125.975 62.8856C125.35 62.8856 124.792 63.0328 124.301 63.3272C123.822 63.6093 123.448 64.0141 123.178 64.5416C122.909 65.0568 122.774 65.6579 122.774 66.3448C122.774 67.0317 122.909 67.6389 123.178 68.1664C123.448 68.6939 123.822 69.1048 124.301 69.3992C124.792 69.6813 125.35 69.8224 125.975 69.8224ZM136.936 71.184C135.992 71.184 135.164 70.9755 134.452 70.5584C133.741 70.1413 133.189 69.5709 132.796 68.8472C132.416 68.1112 132.226 67.2771 132.226 66.3448C132.226 65.4125 132.416 64.5845 132.796 63.8608C133.189 63.1371 133.741 62.5667 134.452 62.1496C135.164 61.7326 135.992 61.524 136.936 61.524C137.893 61.524 138.721 61.7326 139.42 62.1496C140.132 62.5667 140.684 63.1371 141.076 63.8608C141.469 64.5845 141.665 65.4125 141.665 66.3448C141.665 67.2771 141.469 68.1112 141.076 68.8472C140.684 69.5709 140.132 70.1413 139.42 70.5584C138.721 70.9755 137.893 71.184 136.936 71.184ZM136.936 69.8224C137.574 69.8224 138.132 69.6813 138.611 69.3992C139.089 69.1048 139.463 68.6939 139.733 68.1664C140.003 67.6389 140.138 67.0317 140.138 66.3448C140.138 65.6579 140.003 65.0568 139.733 64.5416C139.463 64.0141 139.089 63.6093 138.611 63.3272C138.132 63.0328 137.574 62.8856 136.936 62.8856C136.311 62.8856 135.752 63.0328 135.262 63.3272C134.783 63.6093 134.409 64.0141 134.139 64.5416C133.87 65.0568 133.735 65.6579 133.735 66.3448C133.735 67.0317 133.87 67.6389 134.139 68.1664C134.409 68.6939 134.783 69.1048 135.262 69.3992C135.752 69.6813 136.311 69.8224 136.936 69.8224ZM147.621 71.184C146.726 71.184 145.941 70.9816 145.266 70.5768C144.603 70.1597 144.088 69.5893 143.72 68.8656C143.365 68.1296 143.187 67.2893 143.187 66.3448C143.187 65.4003 143.365 64.5661 143.72 63.8424C144.088 63.1187 144.603 62.5544 145.266 62.1496C145.941 61.7326 146.726 61.524 147.621 61.524C148.333 61.524 148.983 61.6835 149.571 62.0024C150.16 62.3091 150.626 62.7323 150.97 63.272V57.384C150.97 57.2614 151.037 57.2 151.172 57.2H152.258C152.381 57.2 152.442 57.2614 152.442 57.384V70.7976C152.442 70.9325 152.381 71 152.258 71H151.301C151.166 71 151.099 70.9325 151.099 70.7976L151.043 69.3072C150.712 69.8837 150.24 70.3437 149.627 70.6872C149.026 71.0184 148.357 71.184 147.621 71.184ZM147.897 69.8224C148.535 69.8224 149.093 69.6813 149.571 69.3992C150.05 69.1048 150.424 68.6939 150.694 68.1664C150.964 67.6389 151.099 67.0317 151.099 66.3448C151.099 65.6579 150.964 65.0568 150.694 64.5416C150.424 64.0141 150.05 63.6093 149.571 63.3272C149.093 63.0328 148.535 62.8856 147.897 62.8856C147.271 62.8856 146.713 63.0328 146.223 63.3272C145.744 63.6093 145.37 64.0141 145.1 64.5416C144.83 65.0568 144.695 65.6579 144.695 66.3448C144.695 67.0317 144.83 67.6389 145.1 68.1664C145.37 68.6939 145.744 69.1048 146.223 69.3992C146.713 69.6813 147.271 69.8224 147.897 69.8224ZM160.146 59.6104C159.876 59.6104 159.643 59.5246 159.447 59.3528C159.263 59.1688 159.171 58.9419 159.171 58.672C159.171 58.3899 159.263 58.163 159.447 57.9912C159.643 57.8195 159.876 57.7336 160.146 57.7336C160.428 57.7336 160.661 57.8195 160.845 57.9912C161.029 58.163 161.121 58.3899 161.121 58.672C161.121 58.9419 161.029 59.1688 160.845 59.3528C160.661 59.5246 160.428 59.6104 160.146 59.6104ZM159.612 71C159.477 71 159.41 70.9325 159.41 70.7976V61.892C159.41 61.7694 159.477 61.708 159.612 61.708H160.698C160.821 61.708 160.882 61.7694 160.882 61.892V70.7976C160.882 70.9325 160.821 71 160.698 71H159.612ZM166.868 71.184C165.899 71.184 165.083 70.9816 164.421 70.5768C163.758 70.1597 163.28 69.5403 162.986 68.7184C162.949 68.5957 162.992 68.516 163.114 68.4792L164.071 68.2216C164.194 68.1848 164.274 68.2216 164.31 68.332C164.556 68.8717 164.881 69.2581 165.286 69.4912C165.703 69.7243 166.212 69.8408 166.813 69.8408C167.353 69.8408 167.794 69.7365 168.138 69.528C168.493 69.3195 168.671 69.0005 168.671 68.5712C168.671 68.2155 168.524 67.9272 168.23 67.7064C167.947 67.4856 167.487 67.2893 166.85 67.1176L166.298 66.9704C165.279 66.6883 164.543 66.308 164.09 65.8296C163.636 65.3512 163.409 64.7747 163.409 64.1C163.409 63.3517 163.703 62.7384 164.292 62.26C164.893 61.7694 165.678 61.524 166.647 61.524C167.445 61.524 168.144 61.708 168.745 62.076C169.346 62.444 169.781 63.0083 170.051 63.7688C170.113 63.8792 170.076 63.9589 169.941 64.008L168.984 64.3024C168.874 64.3515 168.788 64.3147 168.726 64.192C168.322 63.2966 167.622 62.8488 166.629 62.8488C166.126 62.8488 165.715 62.9592 165.396 63.18C165.077 63.4008 164.918 63.7075 164.918 64.1C164.918 64.4557 165.059 64.744 165.341 64.9648C165.635 65.1856 166.132 65.388 166.831 65.572L167.346 65.7008C168.377 65.9707 169.107 66.3387 169.536 66.8048C169.978 67.2587 170.198 67.8352 170.198 68.5344C170.198 69.3317 169.886 69.9757 169.26 70.4664C168.647 70.9448 167.849 71.184 166.868 71.184ZM179.018 71C178.907 71 178.834 70.9509 178.797 70.8528L175.595 61.9288C175.559 61.7816 175.614 61.708 175.761 61.708H177.067C177.178 61.708 177.251 61.7571 177.288 61.8552L179.441 68.4424L182.054 61.8552C182.091 61.7571 182.164 61.708 182.275 61.708H182.955C183.053 61.708 183.127 61.7571 183.176 61.8552L185.715 68.3688L187.923 61.8552C187.96 61.7571 188.034 61.708 188.144 61.708H189.34C189.5 61.708 189.555 61.7816 189.506 61.9288L186.304 70.8528C186.267 70.9509 186.194 71 186.083 71H185.403C185.292 71 185.219 70.9509 185.182 70.8528L182.587 64.192L179.919 70.8528C179.883 70.9509 179.809 71 179.699 71H179.018ZM191.615 71C191.48 71 191.412 70.9325 191.412 70.7976V57.384C191.412 57.2614 191.48 57.2 191.615 57.2H192.7C192.823 57.2 192.884 57.2614 192.884 57.384V63.272C193.24 62.6955 193.718 62.26 194.319 61.9656C194.933 61.6712 195.546 61.524 196.159 61.524C197.214 61.524 198.03 61.8307 198.607 62.444C199.195 63.0451 199.49 63.8853 199.49 64.9648V70.7976C199.49 70.9325 199.429 71 199.306 71H198.22C198.085 71 198.018 70.9325 198.018 70.7976V65.572C198.018 64.6765 197.834 64.008 197.466 63.5664C197.11 63.1126 196.546 62.8856 195.773 62.8856C195.331 62.8856 194.89 63.0022 194.448 63.2352C194.007 63.456 193.633 63.8056 193.326 64.284C193.031 64.7501 192.884 65.3512 192.884 66.0872V70.7976C192.884 70.9325 192.823 71 192.7 71H191.615ZM206.184 71.184C205.251 71.184 204.442 70.9755 203.755 70.5584C203.08 70.1413 202.559 69.5709 202.191 68.8472C201.823 68.1112 201.639 67.2771 201.639 66.3448C201.639 65.4125 201.823 64.5845 202.191 63.8608C202.571 63.1371 203.099 62.5667 203.773 62.1496C204.46 61.7326 205.264 61.524 206.184 61.524C207.104 61.524 207.877 61.7387 208.502 62.168C209.128 62.5974 209.6 63.1984 209.919 63.9712C210.25 64.7317 210.41 65.6149 210.397 66.6208C210.397 66.7557 210.33 66.8232 210.195 66.8232H203.166C203.252 67.7432 203.559 68.4792 204.086 69.0312C204.626 69.5709 205.325 69.8408 206.184 69.8408C206.858 69.8408 207.41 69.7059 207.84 69.436C208.281 69.1661 208.631 68.7797 208.889 68.2768C208.938 68.1787 209.023 68.148 209.146 68.1848L210.066 68.516C210.201 68.5651 210.238 68.6448 210.176 68.7552C209.784 69.5771 209.244 70.1904 208.557 70.5952C207.87 70.9877 207.079 71.184 206.184 71.184ZM206.184 62.8488C205.374 62.8488 204.699 63.1003 204.16 63.6032C203.632 64.1061 203.307 64.7931 203.185 65.664H208.833C208.772 64.8176 208.508 64.1368 208.042 63.6216C207.576 63.1064 206.957 62.8488 206.184 62.8488ZM212.656 71C212.521 71 212.454 70.9325 212.454 70.7976V61.892C212.454 61.7694 212.521 61.708 212.656 61.708H213.594C213.729 61.708 213.797 61.7694 213.797 61.892L213.87 63.4928C214.202 62.8795 214.643 62.4072 215.195 62.076C215.76 61.7448 216.373 61.5792 217.035 61.5792C217.146 61.5792 217.238 61.5792 217.311 61.5792C217.397 61.5792 217.471 61.5915 217.532 61.616C217.642 61.6283 217.698 61.6958 217.698 61.8184V62.8856C217.698 63.0328 217.63 63.0942 217.495 63.0696C217.409 63.0574 217.317 63.0451 217.219 63.0328C217.121 63.0206 217.005 63.0144 216.87 63.0144C216.367 63.0144 215.888 63.1432 215.434 63.4008C214.981 63.6584 214.613 64.008 214.33 64.4496C214.061 64.8912 213.926 65.3941 213.926 65.9584V70.7976C213.926 70.9325 213.864 71 213.742 71H212.656ZM223.11 71.184C222.178 71.184 221.368 70.9755 220.681 70.5584C220.007 70.1413 219.485 69.5709 219.117 68.8472C218.749 68.1112 218.565 67.2771 218.565 66.3448C218.565 65.4125 218.749 64.5845 219.117 63.8608C219.498 63.1371 220.025 62.5667 220.7 62.1496C221.387 61.7326 222.19 61.524 223.11 61.524C224.03 61.524 224.803 61.7387 225.429 62.168C226.054 62.5974 226.526 63.1984 226.845 63.9712C227.177 64.7317 227.336 65.6149 227.324 66.6208C227.324 66.7557 227.256 66.8232 227.121 66.8232H220.093C220.179 67.7432 220.485 68.4792 221.013 69.0312C221.552 69.5709 222.252 69.8408 223.11 69.8408C223.785 69.8408 224.337 69.7059 224.766 69.436C225.208 69.1661 225.557 68.7797 225.815 68.2768C225.864 68.1787 225.95 68.148 226.073 68.1848L226.993 68.516C227.128 68.5651 227.164 68.6448 227.103 68.7552C226.71 69.5771 226.171 70.1904 225.484 70.5952C224.797 70.9877 224.006 71.184 223.11 71.184ZM223.11 62.8488C222.301 62.8488 221.626 63.1003 221.086 63.6032C220.559 64.1061 220.234 64.7931 220.111 65.664H225.76C225.698 64.8176 225.435 64.1368 224.969 63.6216C224.503 63.1064 223.883 62.8488 223.11 62.8488ZM234.213 59.6104C233.943 59.6104 233.71 59.5246 233.514 59.3528C233.33 59.1688 233.238 58.9419 233.238 58.672C233.238 58.3899 233.33 58.163 233.514 57.9912C233.71 57.8195 233.943 57.7336 234.213 57.7336C234.495 57.7336 234.728 57.8195 234.912 57.9912C235.096 58.163 235.188 58.3899 235.188 58.672C235.188 58.9419 235.096 59.1688 234.912 59.3528C234.728 59.5246 234.495 59.6104 234.213 59.6104ZM233.679 71C233.545 71 233.477 70.9325 233.477 70.7976V61.892C233.477 61.7694 233.545 61.708 233.679 61.708H234.765C234.888 61.708 234.949 61.7694 234.949 61.892V70.7976C234.949 70.9325 234.888 71 234.765 71H233.679ZM241.045 71.184C240.211 71.184 239.555 70.9141 239.077 70.3744C238.598 69.8224 238.359 68.9576 238.359 67.78V63.0328H236.721C236.599 63.0328 236.537 62.9715 236.537 62.8488V61.892C236.537 61.7694 236.599 61.708 236.721 61.708H238.359V58.856C238.359 58.7334 238.42 58.672 238.543 58.672H239.629C239.764 58.672 239.831 58.7334 239.831 58.856V61.708H242.407C242.53 61.708 242.591 61.7694 242.591 61.892V62.8488C242.591 62.9715 242.53 63.0328 242.407 63.0328H239.831V67.8168C239.831 68.516 239.941 69.0251 240.162 69.344C240.383 69.6629 240.72 69.8224 241.174 69.8224C241.702 69.8224 242.1 69.5403 242.37 68.976C242.432 68.8533 242.517 68.8227 242.628 68.884L243.456 69.2336C243.579 69.2949 243.603 69.3992 243.529 69.5464C243.235 70.1352 242.873 70.5584 242.444 70.816C242.015 71.0613 241.548 71.184 241.045 71.184ZM244.075 61.708C243.928 61.708 243.879 61.6406 243.928 61.5056L244.701 59.1688C244.271 59.0339 244.057 58.7272 244.057 58.2488C244.057 57.9667 244.149 57.7398 244.333 57.568C244.517 57.384 244.762 57.292 245.069 57.292C245.363 57.292 245.602 57.384 245.786 57.568C245.983 57.7398 246.081 57.9667 246.081 58.2488C246.081 58.4206 246.044 58.6291 245.97 58.8744C245.897 59.1075 245.756 59.4571 245.547 59.9232L244.848 61.5608C244.799 61.659 244.725 61.708 244.627 61.708H244.075ZM251.249 71.184C250.28 71.184 249.464 70.9816 248.802 70.5768C248.139 70.1597 247.661 69.5403 247.367 68.7184C247.33 68.5957 247.373 68.516 247.495 68.4792L248.452 68.2216C248.575 68.1848 248.655 68.2216 248.691 68.332C248.937 68.8717 249.262 69.2581 249.667 69.4912C250.084 69.7243 250.593 69.8408 251.194 69.8408C251.734 69.8408 252.175 69.7365 252.519 69.528C252.874 69.3195 253.052 69.0005 253.052 68.5712C253.052 68.2155 252.905 67.9272 252.611 67.7064C252.329 67.4856 251.869 67.2893 251.231 67.1176L250.679 66.9704C249.661 66.6883 248.925 66.308 248.471 65.8296C248.017 65.3512 247.79 64.7747 247.79 64.1C247.79 63.3517 248.084 62.7384 248.673 62.26C249.274 61.7694 250.059 61.524 251.028 61.524C251.826 61.524 252.525 61.708 253.126 62.076C253.727 62.444 254.162 63.0083 254.432 63.7688C254.494 63.8792 254.457 63.9589 254.322 64.008L253.365 64.3024C253.255 64.3515 253.169 64.3147 253.107 64.192C252.703 63.2966 252.003 62.8488 251.01 62.8488C250.507 62.8488 250.096 62.9592 249.777 63.18C249.458 63.4008 249.299 63.7075 249.299 64.1C249.299 64.4557 249.44 64.744 249.722 64.9648C250.016 65.1856 250.513 65.388 251.212 65.572L251.727 65.7008C252.758 65.9707 253.488 66.3387 253.917 66.8048C254.359 67.2587 254.579 67.8352 254.579 68.5344C254.579 69.3317 254.267 69.9757 253.641 70.4664C253.028 70.9448 252.23 71.184 251.249 71.184ZM264.705 71.184C263.81 71.184 263.025 70.9816 262.35 70.5768C261.688 70.1597 261.172 69.5893 260.804 68.8656C260.449 68.1296 260.271 67.2893 260.271 66.3448C260.271 65.4003 260.449 64.5661 260.804 63.8424C261.172 63.1187 261.688 62.5544 262.35 62.1496C263.025 61.7326 263.81 61.524 264.705 61.524C265.441 61.524 266.11 61.6896 266.711 62.0208C267.324 62.352 267.796 62.8059 268.128 63.3824L268.183 61.892C268.183 61.7694 268.25 61.708 268.385 61.708H269.342C269.465 61.708 269.526 61.7694 269.526 61.892V70.7976C269.526 70.9325 269.465 71 269.342 71H268.385C268.25 71 268.183 70.9325 268.183 70.7976L268.128 69.3072C267.796 69.8837 267.324 70.3437 266.711 70.6872C266.11 71.0184 265.441 71.184 264.705 71.184ZM264.981 69.8224C265.619 69.8224 266.177 69.6813 266.656 69.3992C267.134 69.1048 267.508 68.6939 267.778 68.1664C268.048 67.6389 268.183 67.0317 268.183 66.3448C268.183 65.6579 268.048 65.0568 267.778 64.5416C267.508 64.0141 267.134 63.6093 266.656 63.3272C266.177 63.0328 265.619 62.8856 264.981 62.8856C264.356 62.8856 263.797 63.0328 263.307 63.3272C262.828 63.6093 262.454 64.0141 262.184 64.5416C261.915 65.0568 261.78 65.6579 261.78 66.3448C261.78 67.0317 261.915 67.6389 262.184 68.1664C262.454 68.6939 262.828 69.1048 263.307 69.3992C263.797 69.6813 264.356 69.8224 264.981 69.8224ZM275.617 71.184C274.783 71.184 274.127 70.9141 273.648 70.3744C273.17 69.8224 272.931 68.9576 272.931 67.78V63.0328H271.293C271.171 63.0328 271.109 62.9715 271.109 62.8488V61.892C271.109 61.7694 271.171 61.708 271.293 61.708H272.931V58.856C272.931 58.7334 272.992 58.672 273.115 58.672H274.2C274.335 58.672 274.403 58.7334 274.403 58.856V61.708H276.979C277.102 61.708 277.163 61.7694 277.163 61.892V62.8488C277.163 62.9715 277.102 63.0328 276.979 63.0328H274.403V67.8168C274.403 68.516 274.513 69.0251 274.734 69.344C274.955 69.6629 275.292 69.8224 275.746 69.8224C276.274 69.8224 276.672 69.5403 276.942 68.976C277.003 68.8533 277.089 68.8227 277.2 68.884L278.028 69.2336C278.15 69.2949 278.175 69.3992 278.101 69.5464C277.807 70.1352 277.445 70.5584 277.016 70.816C276.586 71.0613 276.12 71.184 275.617 71.184ZM278.647 61.708C278.5 61.708 278.451 61.6406 278.5 61.5056L279.273 59.1688C278.843 59.0339 278.629 58.7272 278.629 58.2488C278.629 57.9667 278.721 57.7398 278.905 57.568C279.089 57.384 279.334 57.292 279.641 57.292C279.935 57.292 280.174 57.384 280.358 57.568C280.554 57.7398 280.653 57.9667 280.653 58.2488C280.653 58.4206 280.616 58.6291 280.542 58.8744C280.469 59.1075 280.327 59.4571 280.119 59.9232L279.42 61.5608C279.371 61.659 279.297 61.708 279.199 61.708H278.647ZM281.517 61.708C281.37 61.708 281.321 61.6406 281.37 61.5056L282.143 59.1688C281.714 59.0339 281.499 58.7272 281.499 58.2488C281.499 57.9667 281.591 57.7398 281.775 57.568C281.959 57.384 282.204 57.292 282.511 57.292C282.805 57.292 283.045 57.384 283.229 57.568C283.425 57.7398 283.523 57.9667 283.523 58.2488C283.523 58.4206 283.486 58.6291 283.413 58.8744C283.339 59.1075 283.198 59.4571 282.989 59.9232L282.29 61.5608C282.241 61.659 282.167 61.708 282.069 61.708H281.517Z" fill="white"/>
<path d="M86.793 47.6311C84.4191 47.6311 82.3156 47.1352 80.4825 46.1436C78.6795 45.1519 77.2671 43.7846 76.2454 42.0417C75.2538 40.2688 74.7579 38.2704 74.7579 36.0467C74.7579 34.6944 74.9382 33.3722 75.2988 32.0801C75.6895 30.7579 76.3055 29.3155 77.1469 27.7528C78.0184 26.1602 79.1753 24.2971 80.6177 22.1635L86.0268 14.2753C86.177 14.0349 86.4174 13.9147 86.748 13.9147H92.4275C92.6679 13.9147 92.8181 13.9898 92.8782 14.1401C92.9684 14.2903 92.9383 14.4556 92.7881 14.6359L84.6745 26.1301C85.8164 25.6493 87.0785 25.4089 88.4608 25.4089C90.5042 25.4089 92.2922 25.8747 93.8248 26.8063C95.3874 27.7078 96.6044 28.9849 97.4759 30.6377C98.3774 32.2904 98.8282 34.1986 98.8282 36.3622C98.8282 38.5859 98.3173 40.5542 97.2956 42.2671C96.3039 43.9499 94.9066 45.2721 93.1036 46.2337C91.3006 47.1653 89.1971 47.6311 86.793 47.6311ZM86.748 41.6811C88.4308 41.6811 89.7981 41.1853 90.8498 40.1936C91.9016 39.1719 92.4275 37.8347 92.4275 36.1819C92.4275 34.5292 91.9016 33.207 90.8498 32.2153C89.7981 31.1936 88.4308 30.6827 86.748 30.6827C85.0952 30.6827 83.7279 31.1936 82.6461 32.2153C81.5944 33.207 81.0685 34.5292 81.0685 36.1819C81.0685 37.8347 81.5944 39.1719 82.6461 40.1936C83.7279 41.1853 85.0952 41.6811 86.748 41.6811ZM106.553 30.6827C105.531 30.6827 104.66 30.3522 103.939 29.6911C103.247 28.9999 102.902 28.1435 102.902 27.1218C102.902 26.07 103.247 25.2136 103.939 24.5525C104.66 23.8914 105.531 23.5608 106.553 23.5608C107.605 23.5608 108.476 23.8914 109.167 24.5525C109.858 25.2136 110.204 26.07 110.204 27.1218C110.204 28.1435 109.858 28.9999 109.167 29.6911C108.476 30.3522 107.605 30.6827 106.553 30.6827ZM106.553 47.4508C105.531 47.4508 104.66 47.1202 103.939 46.4591C103.247 45.7679 102.902 44.9115 102.902 43.8898C102.902 42.838 103.247 41.9816 103.939 41.3205C104.66 40.6594 105.531 40.3289 106.553 40.3289C107.605 40.3289 108.476 40.6594 109.167 41.3205C109.858 41.9816 110.204 42.838 110.204 43.8898C110.204 44.9115 109.858 45.7679 109.167 46.4591C108.476 47.1202 107.605 47.4508 106.553 47.4508ZM122.308 47C121.918 47 121.722 46.8047 121.722 46.414V22.0283L115.682 24.4173C115.352 24.5675 115.096 24.4623 114.916 24.1017L114.059 22.479C113.909 22.1485 113.969 21.878 114.24 21.6677L122.984 14.1852C123.165 14.0049 123.405 13.9147 123.706 13.9147H127.221C127.612 13.9147 127.807 14.11 127.807 14.5007V46.414C127.807 46.8047 127.612 47 127.221 47H122.308ZM145.778 47.6311C143.404 47.6311 141.301 47.1352 139.468 46.1436C137.665 45.1519 136.252 43.7846 135.231 42.0417C134.239 40.2688 133.743 38.2704 133.743 36.0467C133.743 34.6944 133.924 33.3722 134.284 32.0801C134.675 30.7579 135.291 29.3155 136.132 27.7528C137.004 26.1602 138.161 24.2971 139.603 22.1635L145.012 14.2753C145.162 14.0349 145.403 13.9147 145.733 13.9147H151.413C151.653 13.9147 151.803 13.9898 151.863 14.1401C151.954 14.2903 151.924 14.4556 151.773 14.6359L143.66 26.1301C144.802 25.6493 146.064 25.4089 147.446 25.4089C149.49 25.4089 151.278 25.8747 152.81 26.8063C154.373 27.7078 155.59 28.9849 156.461 30.6377C157.363 32.2904 157.813 34.1986 157.813 36.3622C157.813 38.5859 157.303 40.5542 156.281 42.2671C155.289 43.9499 153.892 45.2721 152.089 46.2337C150.286 47.1653 148.182 47.6311 145.778 47.6311ZM145.733 41.6811C147.416 41.6811 148.783 41.1853 149.835 40.1936C150.887 39.1719 151.413 37.8347 151.413 36.1819C151.413 34.5292 150.887 33.207 149.835 32.2153C148.783 31.1936 147.416 30.6827 145.733 30.6827C144.08 30.6827 142.713 31.1936 141.631 32.2153C140.58 33.207 140.054 34.5292 140.054 36.1819C140.054 37.8347 140.58 39.1719 141.631 40.1936C142.713 41.1853 144.08 41.6811 145.733 41.6811ZM175.352 19.5041C174.391 19.5041 173.579 19.2036 172.918 18.6025C172.257 18.0015 171.927 17.2202 171.927 16.2586C171.927 15.297 172.257 14.5157 172.918 13.9147C173.579 13.3137 174.391 13.0132 175.352 13.0132C176.314 13.0132 177.125 13.3137 177.786 13.9147C178.447 14.5157 178.778 15.297 178.778 16.2586C178.778 17.2202 178.447 18.0015 177.786 18.6025C177.125 19.2036 176.314 19.5041 175.352 19.5041ZM173.008 47C172.618 47 172.422 46.8047 172.422 46.414V24.237C172.422 23.8463 172.618 23.651 173.008 23.651H177.696C178.087 23.651 178.282 23.8463 178.282 24.237V46.414C178.282 46.8047 178.087 47 177.696 47H173.008ZM184.982 47C184.591 47 184.396 46.8047 184.396 46.414V24.237C184.396 23.8463 184.591 23.651 184.982 23.651H189.219C189.639 23.651 189.85 23.8463 189.85 24.237L189.985 26.8964C190.856 25.6644 191.968 24.7478 193.32 24.1468C194.673 23.5158 196.1 23.2002 197.603 23.2002C200.307 23.2002 202.396 23.9665 203.868 25.4991C205.371 27.0316 206.122 29.1351 206.122 31.8096V46.414C206.122 46.8047 205.927 47 205.536 47H200.848C200.457 47 200.262 46.8047 200.262 46.414V34.1986C200.262 32.2453 199.901 30.818 199.18 29.9165C198.459 28.9849 197.332 28.5191 195.8 28.5191C194.868 28.5191 193.967 28.7595 193.095 29.2403C192.254 29.7211 191.563 30.4423 191.022 31.4039C190.511 32.3655 190.255 33.5976 190.255 35.1001V46.414C190.255 46.8047 190.06 47 189.669 47H184.982ZM223.115 47C222.724 47 222.529 46.8047 222.529 46.414V14.5007C222.529 14.11 222.724 13.9147 223.115 13.9147H228.028C228.418 13.9147 228.614 14.11 228.614 14.5007V41.1853H244.57C244.961 41.1853 245.156 41.3806 245.156 41.7713V46.414C245.156 46.8047 244.961 47 244.57 47H223.115ZM247.965 47C247.754 47 247.604 46.9399 247.514 46.8197C247.424 46.6995 247.424 46.5342 247.514 46.3239L260.721 14.3655C260.841 14.065 261.067 13.9147 261.397 13.9147H265.589C265.92 13.9147 266.145 14.065 266.265 14.3655L279.472 46.3239C279.563 46.5342 279.563 46.6995 279.472 46.8197C279.382 46.9399 279.232 47 279.022 47H273.342C273.012 47 272.786 46.8497 272.666 46.5492L270.322 40.3739H256.574L254.23 46.5492C254.11 46.8497 253.885 47 253.554 47H247.965ZM258.693 34.7395H268.159L263.426 22.2086L258.693 34.7395Z" fill="white"/>
<defs>
<clipPath id="clip0_12_3">
<rect y="11" width="60" height="60" rx="30" fill="white"/>
</clipPath>
</defs>
</svg>
