<svg width="60" height="60" viewBox="0 0 60 60" fill="none" xmlns="http://www.w3.org/2000/svg">
<path fill-rule="evenodd" clip-rule="evenodd" d="M46.9572 10.119C47.8284 9.91248 48.4359 9.70946 48.9337 9.49623C49.6312 9.19738 50.2094 8.83938 51.1232 8.23646C51.8909 7.72973 52.8749 7.68561 53.6849 8.12156C54.4949 8.55751 55.0002 9.40311 55.0002 10.323C55.0002 13.0253 54.6634 15.2402 53.8839 17.1894C53.2279 18.8289 52.3064 20.1605 51.2042 21.3726C50.7387 29.7804 48.3049 36.3831 44.5842 41.3854C40.7277 46.5701 35.5967 49.8904 30.1879 51.7499C24.7949 53.6036 19.0968 54.0179 13.9919 53.3901C8.92059 52.7666 4.23279 51.0876 0.965316 48.5464C0.0705162 47.8504 -0.244026 46.6394 0.198966 45.5959C0.641966 44.5524 1.73159 43.9376 2.85379 44.0981C6.06872 44.5574 9.16344 43.8264 11.7082 42.7814C11.2072 42.5089 10.7349 42.2139 10.2959 41.9099C7.97707 40.3046 6.10619 38.1254 5.26412 36.4411C4.91564 35.7444 4.91204 34.9246 5.25439 34.2249C5.43099 33.8636 5.68924 33.5559 6.00279 33.3211C2.61712 30.5269 1.25017 26.6621 1.25017 24.073C1.25017 23.3032 1.60487 22.5762 2.21167 22.1025C2.46682 21.9033 2.75457 21.7582 3.05789 21.6708C2.80454 20.9289 2.60794 20.1794 2.45809 19.4538C1.79367 16.2366 1.85264 12.6055 2.57482 9.71668C2.82194 8.72813 3.64429 7.98851 4.65342 7.84716C5.66252 7.70583 6.65644 8.19108 7.16564 9.07371C9.85942 13.7429 14.8281 16.5969 19.4523 18.2876C21.6264 19.0824 23.6399 19.5889 25.1492 19.9003C25.4749 16.8488 26.3269 14.3324 27.6347 12.3336C29.3599 9.69666 31.7662 8.13648 34.3502 7.44081C38.8069 6.24106 43.7522 7.60791 46.9572 10.119ZM24.3712 24.8445C22.6584 24.5005 20.3045 23.9228 17.7355 22.9836C14.3424 21.7431 10.4024 19.8088 7.10199 16.8126C7.16107 17.364 7.24492 17.9107 7.35477 18.4425C7.90789 21.1208 8.93569 22.6208 9.86822 23.0871C11.0087 23.6574 11.5373 24.9946 11.0949 26.1906C10.4959 27.8099 8.92042 27.9426 7.48897 27.5849C8.64027 29.3109 10.7096 31.0319 14.1612 31.6071C15.3516 31.8056 16.2304 32.8261 16.2498 34.0329C16.2693 35.2396 15.4239 36.2879 14.2405 36.5246L12.0643 36.9599C12.3972 37.2491 12.7577 37.5329 13.1419 37.7989C14.8842 39.0051 16.6336 39.5254 18.1438 39.1479C19.275 38.8651 20.4514 39.4016 20.9793 40.4414C21.5071 41.4809 21.2463 42.7474 20.3506 43.4936C18.7408 44.8336 16.8608 45.9089 14.9766 46.8011C14.0921 47.2201 13.1035 47.6336 12.0299 47.9976C12.8556 48.1739 13.7148 48.3184 14.6021 48.4276C19.0286 48.9719 23.9554 48.6049 28.5624 47.0214C33.1537 45.4431 37.3974 42.6696 40.5724 38.4014C43.7427 34.1389 45.9552 28.2401 46.2519 20.2306C46.2752 19.6 46.5362 19.0016 46.9824 18.5554C48.1064 17.4313 49.0354 16.1428 49.4924 14.6091C48.6927 14.8584 47.7922 15.0742 46.7197 15.2793C45.9059 15.4348 45.0682 15.1773 44.4824 14.5915C42.5712 12.6802 38.7912 11.4233 35.6499 12.2689C34.1717 12.6669 32.8279 13.5284 31.8187 15.071C30.7884 16.646 30.0002 19.0995 30.0002 22.8231C30.0002 23.5306 29.7004 24.2049 29.1754 24.6789C27.9304 25.8026 25.8352 25.1384 24.3712 24.8445Z" fill="white"/>
</svg>
