<svg width="60" height="60" viewBox="0 0 60 60" fill="none" xmlns="http://www.w3.org/2000/svg">
<path fill-rule="evenodd" clip-rule="evenodd" d="M23.7403 17.8294C22.9666 17.3872 22.016 17.3904 21.2452 17.8377C20.4744 18.285 20 19.1088 20 20V40C20 40.8912 20.4744 41.715 21.2452 42.1623C22.016 42.6095 22.9666 42.6127 23.7403 42.1705L41.2402 32.1705C42.0192 31.7255 42.5 30.8972 42.5 30C42.5 29.1027 42.0192 28.2745 41.2402 27.8295L23.7403 17.8294ZM34.961 30L25 35.692V24.3079L34.961 30Z" fill="white"/>
<path fill-rule="evenodd" clip-rule="evenodd" d="M0 30C0 20.6257 0 15.9385 2.38729 12.6527C3.15827 11.5915 4.0915 10.6583 5.15267 9.88728C8.4385 7.5 13.1257 7.5 22.5 7.5H37.5C46.8743 7.5 51.5615 7.5 54.8472 9.88728C55.9085 10.6583 56.8417 11.5915 57.6127 12.6527C60 15.9385 60 20.6257 60 30C60 39.3743 60 44.0615 57.6127 47.3472C56.8417 48.4085 55.9085 49.3417 54.8472 50.1127C51.5615 52.5 46.8743 52.5 37.5 52.5H22.5C13.1257 52.5 8.4385 52.5 5.15267 50.1127C4.0915 49.3417 3.15827 48.4085 2.38729 47.3472C0 44.0615 0 39.3743 0 30ZM22.5 12.5H37.5C42.2985 12.5 45.4957 12.5069 47.9182 12.7693C50.2472 13.0216 51.26 13.4612 51.9085 13.9324C52.545 14.395 53.105 14.9549 53.5677 15.5916C54.0387 16.2401 54.4782 17.2528 54.7307 19.5817C54.9932 22.0042 55 25.2015 55 30C55 34.7985 54.9932 37.9957 54.7307 40.4182C54.4782 42.7472 54.0387 43.76 53.5677 44.4085C53.105 45.045 52.545 45.605 51.9085 46.0677C51.26 46.5387 50.2472 46.9782 47.9182 47.2307C45.4957 47.4932 42.2985 47.5 37.5 47.5H22.5C17.7014 47.5 14.5042 47.4932 12.0817 47.2307C9.75282 46.9782 8.74012 46.5387 8.0916 46.0677C7.4549 45.605 6.89497 45.045 6.43237 44.4085C5.9612 43.76 5.52165 42.7472 5.26932 40.4182C5.00687 37.9957 5 34.7985 5 30C5 25.2015 5.00687 22.0042 5.26932 19.5817C5.52165 17.2528 5.9612 16.2401 6.43237 15.5916C6.89497 14.9549 7.4549 14.395 8.0916 13.9324C8.74012 13.4612 9.75282 13.0216 12.0817 12.7693C14.5042 12.5069 17.7014 12.5 22.5 12.5Z" fill="white"/>
</svg>
